<?xml version="1.0" encoding="UTF-8"?>
<svg id="Layer_2" xmlns="http://www.w3.org/2000/svg" viewBox="0 0 16.46 17">
  <defs>
    <style>
      .cls-1 {
        fill: #b0b0b0;
      }
    </style>
  </defs>
  <g id="Layer_1-2" data-name="Layer_1">
    <path class="cls-1" d="M6.24,17c-2,0-3.98-1.03-5.16-2.68C-.04,12.74-.3,10.82.36,8.92c0-.02.01-.05.01-.07H.37S2.97,2.56,2.97,2.56c.27-.62.78-.97,1.41-.97.56,0,1.12.29,1.42.74.2.29.38.78.11,1.45,0,.01,0,.02-.01.03-.01.03-.03.07-.03.13,0,.09.05.17.14.2.03.01.06.02.09.02.06,0,.11-.02.15-.06.04-.04,3.65-3.57,3.72-3.63,0,0,0,0,0,0,.27-.29.65-.45,1.07-.45.71,0,1.33.44,1.51,1.07.02.07.07.12.14.15.03,0,.05.01.08.01.04,0,.08-.01.12-.04.23-.15.48-.22.76-.22.68,0,1.34.45,1.52,1.03v.02s0,.04,0,.06c.13.43.07.87-.15,1.23-.04.06-.04.13-.02.19.03.06.08.11.14.13.5.15.89.56,1.02,1.11.14.56-.02,1.14-.41,1.51,0,0-.43.43-.43.43-.05.05-.07.13-.06.2s.06.13.13.16c.23.1.4.2.58.38,0,0,0,0,0,0,.23.21.39.5.44.83.07.48-.09,1-.42,1.36,0,0-5.58,5.58-5.58,5.58-1.18,1.18-2.63,1.8-4.21,1.8ZM4.43,2.2c-.39,0-.74.23-.88.59L.93,9.1s0,0,0,.01c-.58,1.73-.34,3.46.69,4.9,1.06,1.47,2.82,2.39,4.6,2.39,1.42,0,2.73-.56,3.79-1.62l.39-.39,5.15-5.18c.23-.2.33-.51.29-.86-.06-.46-.48-.81-.97-.81-.26,0-.5.1-.68.29,0,0-3.72,3.72-3.83,3.83-.06.06-.13.09-.2.09-.12,0-.24-.08-.29-.2-.03-.07-.04-.18.07-.31.48-.49,3.75-3.74,4.99-4.96l.42-.42s0,0,0,0c.28-.3.35-.7.19-1.06-.16-.37-.53-.61-.91-.61-.25,0-.48.1-.68.29l-4.73,4.73c-.06.05-.14.08-.23.08-.14,0-.29-.08-.3-.24,0-.01,0-.02,0-.03-.01-.06.01-.15.08-.22l5.61-5.61c.26-.26.36-.63.25-.96-.12-.4-.53-.69-.97-.69-.26,0-.5.1-.67.29-.08.08-1.1,1.09-2.19,2.16-1.52,1.5-3.23,3.19-3.48,3.44-.07.03-.13.05-.19.05-.16,0-.22-.13-.24-.18-.04-.12,0-.32.2-.46.01,0,.02-.02.03-.03l4.59-4.59s0,0,0,0c.28-.3.35-.7.19-1.06-.16-.37-.53-.61-.91-.61-.25,0-.48.1-.67.29L3.94,7.25s-.01.01-.02.02c-.04.05-.07.07-.09.08,0-.02,0-.06.02-.11.15-.37,1.44-3.55,1.49-3.69.15-.37.06-.77-.22-1.06-.18-.19-.43-.29-.69-.29Z"/>
  </g>
</svg>