<svg id="browser-orbit" xmlns="http://www.w3.org/2000/svg" xmlns:xlink="http://www.w3.org/1999/xlink" x="0px" y="0px" viewBox="0 0 2600 2600" style="enable-background:new 0 0 2600 2600;">
    <style type="text/css">
    @-webkit-keyframes orbit {
        from {
            -webkit-transform: rotate(0deg);
            transform: rotate(0deg);
        }
        to {
            -webkit-transform: rotate(360deg);
            transform: rotate(360deg);
        }
    }

    @-moz-keyframes orbit {
        from {
            -moz-transform: rotate(0deg);
            transform: rotate(0deg);
        }
        to {
            -moz-transform: rotate(360deg);
            transform: rotate(360deg);
        }
    }

    @keyframes orbit {
        from {
            -webkit-transform: rotate(0deg);
            -moz-transform: rotate(0deg);
            transform: rotate(0deg);
        }
        to {
            -webkit-transform: rotate(360deg);
            -moz-transform: rotate(360deg);
            transform: rotate(360deg);
        }
    }

    g.ring-set,
    g.icon {
        -webkit-transform-origin: 50% 50%;
        -moz-transform-origin: 50% 50%;
        -ms-transform-origin: 50% 50%;
        transform-origin: 50% 50%;
        -webkit-animation-name: orbit;
        -moz-animation-name: orbit;
        animation-name: orbit;
        -webkit-animation-iteration-count: infinite;
        -moz-animation-iteration-count: infinite;
        animation-iteration-count: infinite;
        -webkit-animation-fill-mode: forwards;
        -moz-animation-fill-mode: forwards;
        animation-fill-mode: forwards;
        -webkit-animation-timing-function: linear;
        -moz-animation-timing-function: linear;
        animation-timing-function: linear;
        transform-box: fill-box;
    }

    g.cw {
        -webkit-animation-direction: normal;
        -moz-animation-direction: normal;
        animation-direction: normal;
    }

    g.ccw {
        -webkit-animation-direction: reverse;
        -moz-animation-direction: reverse;
        animation-direction: reverse;
    }

    g.ring-set.ccw g.icon {
        -webkit-animation-direction: normal;
        -moz-animation-direction: normal;
        animation-direction: normal;
    }

    g.ring-set.cw g.icon {
        -webkit-animation-direction: reverse;
        -moz-animation-direction: reverse;
        animation-direction: reverse;
    }

    g.set-1,
    g.set-1 g.icon {
        -webkit-animation-duration: 100s;
        -moz-animation-duration: 100s;
        animation-duration: 100s;
    }

    g.set-2,
    g.set-2 g.icon {
        -webkit-animation-duration: 75s;
        -moz-animation-duration: 75s;
        animation-duration: 75s;
    }

    g.set-3,
    g.set-3 g.icon {
        -webkit-animation-duration: 50s;
        -moz-animation-duration: 50s;
        animation-duration: 50s;
    }

    g.set-4,
    g.set-4 g.icon {
        -webkit-animation-duration: 25s;
        -moz-animation-duration: 25s;
        animation-duration: 25s;
    }
    </style>
    <g class="ring-set cw set-1">
        <g class="ring">
            <path fill="none" stroke="#333" stroke-width="2px" d="M1300,201.3c74.5,0,149,7.5,221.4,22.3c70.5,14.4,139.9,36,206.2,64c65.1,27.5,127.9,61.6,186.6,101.3
            c58.2,39.3,112.9,84.4,162.6,134.2c49.7,49.7,94.9,104.4,134.2,162.6c39.7,58.7,73.8,121.5,101.3,186.6
            c28,66.3,49.6,135.7,64,206.2c14.8,72.4,22.3,146.9,22.3,221.4s-7.5,149-22.3,221.4c-14.4,70.5-36,139.9-64,206.2
            c-27.5,65.1-61.6,127.9-101.3,186.6c-39.3,58.2-84.4,112.9-134.2,162.6c-49.7,49.7-104.4,94.9-162.6,134.2
            c-58.7,39.7-121.5,73.8-186.6,101.3c-66.3,28-135.7,49.6-206.2,64c-72.4,14.8-146.9,22.3-221.4,22.3s-149-7.5-221.4-22.3
            c-70.5-14.4-139.9-36-206.2-64c-65.1-27.5-127.9-61.6-186.6-101.3c-58.2-39.3-112.9-84.4-162.6-134.2
            c-49.7-49.7-94.9-104.4-134.2-162.6c-39.7-58.7-73.8-121.5-101.3-186.6c-28-66.3-49.6-135.7-64-206.2
            c-14.8-72.4-22.3-146.9-22.3-221.4s7.5-149,22.3-221.4c14.4-70.5,36-139.9,64-206.2c27.5-65.1,61.6-127.9,101.3-186.6
            c39.3-58.2,84.4-112.9,134.2-162.6S627.5,428.3,685.7,389c58.7-39.7,121.5-73.8,186.6-101.3c66.3-28,135.7-49.6,206.2-64
            C1151,208.8,1225.5,201.3,1300,201.3 M1300,200C692.5,200,200,692.5,200,1300s492.5,1100,1100,1100s1100-492.5,1100-1100
            S1907.5,200,1300,200L1300,200z" />
        </g>
        <g class="icon">
            <path fill="#151718" stroke="none" d="M708,474.6c-54.9,0-99.6-44.7-99.6-99.6s44.7-99.6,99.6-99.6s99.6,44.7,99.6,99.6S762.9,474.6,708,474.6z" />
            <path fill="none" stroke="#333" stroke-width="2px" d="M708,275.7c54.7,0,99.3,44.5,99.3,99.3s-44.5,99.3-99.3,99.3s-99.3-44.5-99.3-99.3S653.3,275.7,708,275.7 M708,275
                c-55.2,0-100,44.8-100,100s44.8,100,100,100s100-44.8,100-100S763.2,275,708,275L708,275z" />
            <path fill="#fff" d="M657.2,396.5c-9.7-22-2-57.3,15.3-72.9l-0.7,17.2c0.9-1.1,7.4-1.4,8.5,0c3.6-6.8,15-11.9,24.2-12.1
                c-3.5,2.9-11.6,13.7-10.9,19.2c4.5,1.4,11.4,1.5,15,1.7c1.1,0.6,0.9,4.4-1.3,7.4c0,0-2.9,4-10.7,5.4l0.9,11.6l-8.5-4.1
                c-2.8,7,3.9,13.2,10.7,12c7.6-1.3,10.3-6.3,15.7-6c5.3,0.3,7.4,3.3,6.7,6c0,0-0.9,3.3-6.6,2.8c-4.8,7.7-11.3,11-21.7,10.1
                c15.8,13.1,37.2,1.2,42.6-9.5c5.4-10.7,0.7-26.6-4.7-31.1c6.4,2.8,10.8,5.6,13.1,11.8c1.2-13.8-5.1-29.3-16.4-38.5
                c21.2,6.2,34.2,22.7,34.6,48.9s-23.3,53.7-54.6,53.7C684.7,430.2,665.9,416.4,657.2,396.5z" />
        </g>
        <g class="icon">
            <path fill="#151718" stroke="none" d="M2226,1996.6c-54.9,0-99.6-44.7-99.6-99.6s44.7-99.6,99.6-99.6s99.6,44.7,99.6,99.6
                S2280.9,1996.6,2226,1996.6z" />
            <path fill="none" stroke="#333" stroke-width="2px" d="M2226,1797.7c54.7,0,99.3,44.5,99.3,99.3s-44.5,99.3-99.3,99.3s-99.3-44.5-99.3-99.3S2171.3,1797.7,2226,1797.7
                 M2226,1797c-55.2,0-100,44.8-100,100s44.8,100,100,100s100-44.8,100-100S2281.2,1797,2226,1797L2226,1797z" />
            <path fill="#fff" d="M2175.2,1918.5c-9.7-22-2-57.3,15.3-72.9l-0.7,17.2c0.9-1.1,7.4-1.4,8.5,0c3.6-6.8,15-11.9,24.2-12.1
                c-3.5,2.9-11.6,13.7-10.9,19.2c4.5,1.4,11.4,1.5,15,1.7c1.1,0.6,0.9,4.4-1.3,7.4c0,0-2.9,4-10.7,5.4l0.9,11.6l-8.5-4.1
                c-2.8,7,3.9,13.2,10.7,12c7.6-1.3,10.3-6.3,15.7-6c5.3,0.3,7.4,3.3,6.7,6c0,0-0.9,3.3-6.6,2.8c-4.8,7.7-11.3,11-21.7,10.1
                c15.8,13.1,37.2,1.2,42.6-9.5c5.4-10.7,0.7-26.6-4.7-31.1c6.4,2.8,10.8,5.6,13.1,11.8c1.2-13.8-5.1-29.3-16.4-38.5
                c21.2,6.2,34.2,22.7,34.6,48.9s-23.3,53.7-54.6,53.7C2202.7,1952.2,2183.9,1938.4,2175.2,1918.5z" />
        </g>
        <g class="icon">
            <path fill="#151718" stroke="none" d="M2191,758.6c-54.9,0-99.6-44.7-99.6-99.6s44.7-99.6,99.6-99.6s99.6,44.7,99.6,99.6S2245.9,758.6,2191,758.6z
                " />
            <path fill="none" stroke="#333" stroke-width="2px" d="M2191,559.7c54.7,0,99.3,44.5,99.3,99.3s-44.5,99.3-99.3,99.3s-99.3-44.5-99.3-99.3S2136.3,559.7,2191,559.7 M2191,559
            c-55.2,0-100,44.8-100,100s44.8,100,100,100s100-44.8,100-100S2246.2,559,2191,559L2191,559z" />
            <path fill="#fff" d="M2167.6,669.8c5.8,11.5,18.2,18.5,30.9,16.1l-14.1,27.7c-26.3-4.1-46.5-26.8-46.5-54.3c0-11.1,3.3-21.5,9-30.1
                L2167.6,669.8z M2220.5,611.6c9.6,5.6,16.9,13.6,21.6,22.8l-45.5-2.4c-12.9-0.7-25.2,6.5-29.4,18.7l-16.9-26
                c10.6-13.1,26.4-20.4,42.6-20.4C2202.2,604.2,2211.8,606.6,2220.5,611.6z M2211.5,659.2c0,10.3-8.3,18.5-18.5,18.5
                c-10.3,0-18.5-8.3-18.5-18.5s8.3-18.5,18.5-18.5C2203.3,640.7,2211.5,649,2211.5,659.2z M2220.5,706.9
                c-9.6,5.6-20.3,7.9-30.6,7.3l24.9-38.2c7.1-10.9,6.9-25-1.5-34.9l31-1.6C2254,664.3,2244.3,693.1,2220.5,706.9z" />
        </g>
        <g class="icon">
            <path fill="#151718" stroke="none" d="M366.5,1975.6c-54.9,0-99.6-44.7-99.6-99.6s44.7-99.6,99.6-99.6s99.6,44.7,99.6,99.6
                S421.4,1975.6,366.5,1975.6z" />
            <path fill="none" stroke="#333" stroke-width="2px" d="M366.5,1776.7c54.7,0,99.3,44.5,99.3,99.3s-44.5,99.3-99.3,99.3s-99.3-44.5-99.3-99.3S311.8,1776.7,366.5,1776.7
                 M366.5,1776c-55.2,0-100,44.8-100,100s44.8,100,100,100s100-44.8,100-100S421.7,1776,366.5,1776L366.5,1776z" />
            <path fill="#fff" d="M402.4,1913.4c-5.8,8.8-11.5,13.1-17.2,13.1c-2.3,0-5.4-0.7-9.4-2.1c-4-1.5-7.4-2.1-10.1-2.1c-2.7,0-5.9,0.7-9.5,2.2
                c-3.7,1.5-6.6,2.3-8.8,2.3c-6.9,0-13.5-5.8-20.2-17.3c-6.5-11.5-9.8-22.7-9.8-33.7c0-10.2,2.5-18.6,7.6-25c5-6.4,11.3-9.6,19-9.6
                c3.3,0,7.2,0.7,11.9,2c4.6,1.3,7.7,2,9.2,2c1.9,0,5.2-0.7,9.6-2.3c4.4-1.5,8.3-2.3,11.6-2.3c5.4,0,10.1,1.5,14.3,4.4
                c2.3,1.6,4.7,3.9,7,6.7c-3.5,2.9-6,5.6-7.6,7.9c-2.9,4.2-4.4,8.8-4.4,13.9c0,5.5,1.5,10.5,4.6,14.9c3.1,4.4,6.6,7.2,10.6,8.4
                C409,1902,406.3,1907.6,402.4,1913.4z M383.5,1827.2c-1.3,3.3-3.4,6.4-6.2,9.2c-2.4,2.4-4.8,4-7.2,4.8c-1.5,0.5-3.8,0.9-7,1.1
                c0.1-6.6,1.9-12.4,5.2-17.2c3.3-4.8,9-8.1,16.7-9.9c0.1,0.6,0.3,1.1,0.3,1.5c0,0.5,0.1,0.9,0.1,1.3
                C385.5,1820.9,384.8,1824,383.5,1827.2z" />
        </g>
        <g class="icon">
            <path fill="#151718" stroke="none" d="M1777,2392.6c-54.9,0-99.6-44.7-99.6-99.6s44.7-99.6,99.6-99.6s99.6,44.7,99.6,99.6
                S1831.9,2392.6,1777,2392.6z" />
            <path fill="none" stroke="#333" stroke-width="2px" d="M1777,2193.7c54.7,0,99.3,44.5,99.3,99.3s-44.5,99.3-99.3,99.3s-99.3-44.5-99.3-99.3S1722.3,2193.7,1777,2193.7
                 M1777,2193c-55.2,0-100,44.8-100,100s44.8,100,100,100s100-44.8,100-100S1832.2,2193,1777,2193L1777,2193z" />
            <path fill="#fff" d="M1724.3,2287c3.2-25.4,20.6-48.9,51.6-48.8c18.8,0,34.4,8.8,43.5,25.1c4.7,8.4,6.4,17.4,6.4,27.1v11.5h-69.1
                c0.3,28.5,41.9,27.5,59.8,15v23.1c-10.5,6.3-34.2,11.8-52.7,4.7c-15.7-6-26.6-22.3-26.8-38.1c-0.2-20.4,10.1-34,26.8-41.7
                c-3.5,4.4-6.2,9.2-7.6,17.5h39c2.3-23.3-22-23.3-22-23.3C1750.2,2260,1733.6,2273.4,1724.3,2287L1724.3,2287z" />
        </g>
    </g>
    <g class="ring-set ccw set-2">
        <g class="ring">
            <path fill="none" stroke="#333" stroke-width="2px" d="M1300,521.3c52.8,0,105.6,5.3,156.9,15.8c50,10.2,99.2,25.5,146.2,45.4c46.1,19.5,90.6,43.7,132.3,71.8
            c41.2,27.9,80,59.8,115.2,95.1c35.2,35.2,67.2,74,95.1,115.2c28.1,41.6,52.3,86.1,71.8,132.3c19.9,47,35.1,96.2,45.4,146.2
            c10.5,51.3,15.8,104.1,15.8,156.9s-5.3,105.6-15.8,156.9c-10.2,50-25.5,99.2-45.4,146.2c-19.5,46.1-43.7,90.6-71.8,132.3
            c-27.9,41.2-59.8,80-95.1,115.2c-35.2,35.2-74,67.2-115.2,95.1c-41.6,28.1-86.1,52.3-132.3,71.8c-47,19.9-96.2,35.1-146.2,45.4
            c-51.3,10.5-104.1,15.8-156.9,15.8s-105.6-5.3-156.9-15.8c-50-10.2-99.2-25.5-146.2-45.4c-46.1-19.5-90.6-43.7-132.3-71.8
            c-41.2-27.9-80-59.8-115.2-95.1c-35.2-35.2-67.2-74-95.1-115.2c-28.1-41.6-52.3-86.1-71.8-132.3c-19.9-47-35.1-96.2-45.4-146.2
            c-10.5-51.3-15.8-104.1-15.8-156.9s5.3-105.6,15.8-156.9c10.2-50,25.5-99.2,45.4-146.2c19.5-46.1,43.7-90.6,71.8-132.3
            c27.9-41.2,59.8-80,95.1-115.2s74-67.2,115.2-95.1c41.6-28.1,86.1-52.3,132.3-71.8c47-19.9,96.2-35.1,146.2-45.4
            C1194.4,526.6,1247.2,521.3,1300,521.3 M1300,520c-430.8,0-780,349.2-780,780s349.2,780,780,780s780-349.2,780-780
            S1730.8,520,1300,520L1300,520z" />
        </g>
        <g class="icon">
            <path fill="#151718" stroke="none" d="M2070,1504.1c-54.9,0-99.6-44.7-99.6-99.6s44.7-99.6,99.6-99.6c54.9,0,99.6,44.7,99.6,99.6
                S2124.9,1504.1,2070,1504.1z" />
            <path fill="none" stroke="#333" stroke-width="2px" d="M2070,1305.2c54.7,0,99.3,44.5,99.3,99.3s-44.5,99.3-99.3,99.3s-99.3-44.5-99.3-99.3S2015.3,1305.2,2070,1305.2
                 M2070,1304.5c-55.2,0-100,44.8-100,100s44.8,100,100,100s100-44.8,100-100S2125.2,1304.5,2070,1304.5L2070,1304.5z" />
            <path fill="#fff" d="M2037.6,1389.3v28.8c0,3.8-3,6.9-6.8,6.9s-6.9-3.1-6.9-6.9v-28.8c0-3.8,3.1-6.8,6.9-6.8
                    C2034.5,1382.5,2037.6,1385.6,2037.6,1389.3z M2101.9,1381.4H2040c0-10.6,6.4-19.9,15.8-24.7l-4.8-8.8c-0.3-0.5-0.1-1.1,0.3-1.3
                    c0.5-0.2,1.1-0.1,1.3,0.4l4.8,8.8c4.1-1.8,8.6-2.8,13.5-2.8c4.8,0,9.4,1,13.5,2.8l4.8-8.8c0.3-0.5,0.9-0.6,1.3-0.4
                    c0.5,0.3,0.6,0.9,0.3,1.3l-4.8,8.8C2095.6,1361.5,2101.9,1370.7,2101.9,1381.4z M2101.7,1428.4c0,4.1-3.3,7.4-7.3,7.4h-5v15.2
                    c0,3.8-3.1,6.9-6.9,6.9s-6.9-3.1-6.9-6.9v-15.2h-9.2v15.2c0,3.8-3.1,6.9-6.9,6.9c-3.8,0-6.8-3.1-6.8-6.9l-0.1-15.2h-5
                    c-4.1,0-7.4-3.3-7.4-7.4v-44.6h61.5V1428.4z M2059.5,1367.6c0-1.4-1.1-2.6-2.6-2.6c-1.4,0-2.5,1.2-2.5,2.6s1.1,2.6,2.5,2.6
                    C2058.3,1370.2,2059.5,1369,2059.5,1367.6z M2087.7,1367.6c0-1.4-1.1-2.6-2.5-2.6c-1.5,0-2.6,1.2-2.6,2.6s1.1,2.6,2.6,2.6
                    C2086.5,1370.2,2087.7,1369,2087.7,1367.6z M2118.2,1418.1c0,3.8-3.1,6.9-6.9,6.9c-3.8,0-6.8-3.1-6.8-6.9v-28.8
                    c0-3.8,3.1-6.8,6.8-6.8c3.8,0,6.9,3,6.9,6.8V1418.1z" />
        </g>
        <g class="icon">
            <path fill="#151718" stroke="none" d="M1376,627.6c-54.9,0-99.6-44.7-99.6-99.6s44.7-99.6,99.6-99.6s99.6,44.7,99.6,99.6S1430.9,627.6,1376,627.6z
                " />
            <path fill="none" stroke="#333" stroke-width="2px" d="M1376,428.7c54.7,0,99.3,44.5,99.3,99.3s-44.5,99.3-99.3,99.3s-99.3-44.5-99.3-99.3S1321.3,428.7,1376,428.7 M1376,428
                c-55.2,0-100,44.8-100,100s44.8,100,100,100s100-44.8,100-100S1431.2,428,1376,428L1376,428z" />
            <path fill="#fff" d="M1376,583.2c-30.4,0-55-24.6-55-55s24.6-55,55-55c30.4,0,55,24.6,55,55S1406.4,583.2,1376,583.2z M1376,479.1
                c-27.1,0-49.1,22-49.1,49.1s22,49.1,49.1,49.1s49.1-22,49.1-49.1S1403.1,479.1,1376,479.1z M1413.5,551c-0.6-0.3-3.2-2.1-3.7-2.1
                c-0.4,0-0.8,0.4-0.8,0.8c0,0.8,2.9,2.3,3.6,2.7c-6.1,9.2-15.5,15.8-26.2,18.5l-1-4.1c-0.1-0.6-0.4-0.6-0.9-0.6
                c-0.4,0-0.7,0.6-0.6,0.9l1,4.2c-2.9,0.6-6,0.9-9,0.9c-8,0-16-2.3-22.8-6.4c0.4-0.6,2.7-4,2.7-4.5c0-0.4-0.4-0.8-0.8-0.8
                c-0.9,0-2.7,3.7-3.3,4.4c-9.3-6.1-16-15.7-18.5-26.5l4.2-0.9c0.5-0.1,0.6-0.5,0.6-0.9s-0.6-0.7-1-0.6l-4.2,0.9
                c-0.6-2.8-0.9-5.6-0.9-8.5c0-8.2,2.3-16.3,6.7-23.3c0.6,0.4,3.6,2.4,4.1,2.4c0.4,0,0.8-0.3,0.8-0.7c0-0.9-3.3-2.5-4-3
                c6.3-9.1,15.8-15.7,26.6-18.2l0.9,4.1c0.1,0.5,0.5,0.6,0.9,0.6s0.7-0.6,0.6-1l-0.9-4.1c2.7-0.5,5.5-0.8,8.2-0.8
                c8.2,0,16.3,2.3,23.3,6.7c-0.4,0.6-2.4,3.5-2.4,4c0,0.4,0.3,0.8,0.7,0.8c0.9,0,2.5-3.2,2.9-3.9c9.1,6.1,15.6,15.5,18.1,26.2
                l-3.4,0.7c-0.6,0.1-0.6,0.5-0.6,1c0,0.4,0.6,0.7,0.9,0.6l3.5-0.8c0.6,2.8,0.9,5.7,0.9,8.6C1419.9,536.3,1417.7,544.2,1413.5,551z
                 M1401.7,495.9c-2.9,2.7-29.8,27.4-30.5,28.7l-21.4,35.6c2.8-2.6,29.8-27.5,30.4-28.7L1401.7,495.9z M1375.7,532
                c-2,0-3.9-1.5-3.9-3.6c0-2,1.5-3.9,3.6-3.9c2,0,3.9,1.4,3.9,3.6C1379.3,530.1,1377.8,532,1375.7,532z" />
        </g>
        <g class="icon">
            <path fill="#151718" stroke="none" d="M530,1295.1c-54.9,0-99.6-44.7-99.6-99.6s44.7-99.6,99.6-99.6s99.6,44.7,99.6,99.6S584.9,1295.1,530,1295.1z
                " />
            <path fill="none" stroke="#333" stroke-width="2px" d="M530,1096.2c54.7,0,99.3,44.5,99.3,99.3s-44.5,99.3-99.3,99.3s-99.3-44.5-99.3-99.3S475.3,1096.2,530,1096.2 M530,1095.5
                c-55.2,0-100,44.8-100,100s44.8,100,100,100s100-44.8,100-100S585.2,1095.5,530,1095.5L530,1095.5z" />
            <path fill="#fff" d="M476.3,1187.2c3.2-25.4,20.6-48.9,51.6-48.8c18.8,0,34.4,8.8,43.5,25.1c4.7,8.4,6.4,17.4,6.4,27.1v11.5h-69.1
                    c0.3,28.5,41.9,27.5,59.8,15v23.1c-10.5,6.3-34.2,11.8-52.7,4.7c-15.7-6-26.6-22.3-26.8-38.1c-0.2-20.4,10.1-34,26.8-41.7
                    c-3.5,4.4-6.2,9.2-7.6,17.5h39c2.3-23.3-22-23.3-22-23.3C502.2,1160.2,485.6,1173.6,476.3,1187.2L476.3,1187.2z" />
        </g>
        <g class="icon">
            <path fill="#151718" stroke="none" d="M1226,2175.6c-54.9,0-99.6-44.7-99.6-99.6s44.7-99.6,99.6-99.6s99.6,44.7,99.6,99.6
                C1325.6,2130.9,1280.9,2175.6,1226,2175.6z" />
            <path fill="none" stroke="#333" stroke-width="2px" d="M1226,1976.7c54.7,0,99.3,44.5,99.3,99.3s-44.5,99.3-99.3,99.3s-99.3-44.5-99.3-99.3S1171.3,1976.7,1226,1976.7
                 M1226,1976c-55.2,0-100,44.8-100,100s44.8,100,100,100s100-44.8,100-100S1281.2,1976,1226,1976L1226,1976z" />
            <path fill="#fff" d="M1277.6,2080.8h-70.7c0,12.2,10.7,21.1,22.5,21.1c8,0,15.7-3.9,19.8-10.9h26c-7,19.7-25.7,32.9-46.6,32.9
                    c-7.6,0-15.1-1.8-21.9-5.1c-6.9,3.5-16.5,7.1-24.2,7.1c-10.3,0-14.5-6.3-14.5-16.1c0-5.7,1.2-11.4,2.8-16.9
                    c1-3.6,4.9-10.8,6.7-14.1c7.6-13.7,17.5-26.8,29.2-37.2c-9.4,4.1-19.6,14.2-26.2,21.7c5.2-22.5,25.2-38.4,48.2-38.4
                    c0.9,0,1.8,0,2.8,0.1c7.6-3.5,18.2-7.2,26.6-7.2c9.9,0,18.5,3.8,18.5,15c0,5.9-2.3,12.3-4.6,17.6c4.1,7.3,6.2,15.6,6.2,23.9
                    C1278,2076.6,1277.9,2078.7,1277.6,2080.8z M1187.1,2122.1c5.5,0,11.5-2.5,16.3-5.1c-10-5.9-17.7-15.3-21.5-26.3
                    c-2.8,5.9-6,13.8-6,20.4C1175.9,2118.2,1180.1,2122.1,1187.1,2122.1z M1251.5,2067.3c-0.4-11.8-10.9-20.4-22.3-20.4
                    c-11.5,0-21.9,8.5-22.3,20.4H1251.5z M1262,2024c-5.2,0-11,2.1-15.6,4.3c9.9,3.9,18.5,11,24.1,20.1c1.5-4.1,3.1-9,3.1-13.3
                    C1273.7,2028.3,1268.8,2024,1262,2024z" />
        </g>
    </g>
    <g class="ring-set cw set-3">
        <g class="ring">
            <path fill="none" stroke="#333" stroke-width="2px" d="M1300,791.2c68.7,0,135.3,13.5,198.1,40c60.6,25.6,115,62.3,161.7,109s83.4,101.1,109,161.7c26.5,62.7,40,129.4,40,198.1
            s-13.5,135.3-40,198.1c-25.6,60.6-62.3,115-109,161.7s-101.1,83.4-161.7,109c-62.7,26.5-129.4,40-198.1,40s-135.3-13.5-198.1-40
            c-60.6-25.6-115-62.3-161.7-109s-83.4-101.1-109-161.7c-26.5-62.7-40-129.4-40-198.1s13.5-135.3,40-198.1
            c25.6-60.6,62.3-115,109-161.7s101.1-83.4,161.7-109C1164.7,804.6,1231.3,791.2,1300,791.2 M1300,790c-281.7,0-510,228.3-510,510
            s228.3,510,510,510s510-228.3,510-510S1581.7,790,1300,790L1300,790z" />
        </g>
        <g class="icon">
            <path fill="#151718" stroke="none" d="M970,1016.6c-54.9,0-99.6-44.7-99.6-99.6s44.7-99.6,99.6-99.6c54.9,0,99.6,44.7,99.6,99.6
                S1024.9,1016.6,970,1016.6z" />
            <path fill="none" stroke="#333" stroke-width="2px" d="M970,817.7c54.7,0,99.3,44.5,99.3,99.3s-44.5,99.3-99.3,99.3s-99.3-44.5-99.3-99.3S915.3,817.7,970,817.7 M970,817
                c-55.2,0-100,44.8-100,100s44.8,100,100,100c55.2,0,100-44.8,100-100S1025.2,817,970,817L970,817z" />
            <path fill="#fff" d="M1006.9,954.4c-5.8,8.8-11.5,13.1-17.2,13.1c-2.3,0-5.4-0.7-9.4-2.1c-4-1.5-7.4-2.1-10.1-2.1c-2.7,0-5.9,0.7-9.5,2.2
                    c-3.7,1.5-6.6,2.3-8.8,2.3c-6.9,0-13.5-5.8-20.2-17.3c-6.5-11.5-9.8-22.7-9.8-33.7c0-10.2,2.5-18.6,7.6-25
                    c5-6.4,11.3-9.6,19-9.6c3.3,0,7.2,0.7,11.9,2c4.6,1.3,7.7,2,9.2,2c1.9,0,5.2-0.7,9.6-2.3c4.4-1.5,8.3-2.3,11.6-2.3
                    c5.4,0,10.1,1.5,14.3,4.4c2.3,1.6,4.7,3.9,7,6.7c-3.5,2.9-6,5.6-7.6,7.9c-2.9,4.2-4.4,8.8-4.4,13.9c0,5.5,1.5,10.5,4.6,14.9
                    c3.1,4.4,6.6,7.2,10.6,8.4C1013.5,943,1010.8,948.6,1006.9,954.4z M988,868.2c-1.3,3.3-3.4,6.4-6.2,9.2c-2.4,2.4-4.8,4-7.2,4.8
                    c-1.5,0.5-3.8,0.9-7,1.1c0.1-6.6,1.9-12.4,5.2-17.2c3.3-4.8,9-8.1,16.7-9.9c0.1,0.6,0.3,1.1,0.3,1.5c0,0.5,0.1,0.9,0.1,1.3
                    C990,861.9,989.3,865,988,868.2z" />
        </g>
        <g class="icon">
            <path fill="#151718" stroke="none" d="M933,1749.6c-54.9,0-99.6-44.7-99.6-99.6s44.7-99.6,99.6-99.6s99.6,44.7,99.6,99.6S987.9,1749.6,933,1749.6z
                " />
            <path fill="none" stroke="#333" stroke-width="2px" d="M933,1550.7c54.7,0,99.3,44.5,99.3,99.3s-44.5,99.3-99.3,99.3s-99.3-44.5-99.3-99.3S878.3,1550.7,933,1550.7 M933,1550
                c-55.2,0-100,44.8-100,100s44.8,100,100,100s100-44.8,100-100S988.2,1550,933,1550L933,1550z" />
            <path fill="#fff" d="M947.6,1600.1c-13.1,0-24.6,6.7-32.7,16.8c-5.9,7.4-10,17.8-10.3,29.7v2.6c0.3,11.9,4.4,22.3,10.3,29.7
                    c8.1,10.1,19.6,16.8,32.7,16.8c8,0,15.6-2.5,22-6.8c-9.7,8.7-22.6,14-36.6,14c-0.9,0-1.8,0-2.6-0.1
                    c-29.2-1.4-52.4-25.4-52.4-54.9c0-30.4,24.6-55,55-55c0.1,0,0.1,0,0.2,0c14,0.1,26.8,5.3,36.5,14
                    C963.2,1602.6,955.7,1600.1,947.6,1600.1z M970.2,1688.4c-4.2,2.5-8.8,3.9-13.6,3.9c-5.6,0-11-1.8-15.7-5.2
                    c12.5-4.5,21.7-20.3,21.7-39.2c0-18.8-9.1-34.6-21.6-39.2c4.7-3.3,9.9-5.1,15.6-5.1c5,0,9.6,1.4,13.9,4
                    c10.8,10.1,17.6,24.4,17.6,40.3C988,1663.9,981.1,1678.3,970.2,1688.4z" />
        </g>
        <g class="icon">
            <path fill="#151718" stroke="none" d="M1667,1754.6c-54.9,0-99.6-44.7-99.6-99.6s44.7-99.6,99.6-99.6s99.6,44.7,99.6,99.6
                S1721.9,1754.6,1667,1754.6z" />
            <path fill="none" stroke="#333" stroke-width="2px" d="M1667,1555.7c54.7,0,99.3,44.5,99.3,99.3s-44.5,99.3-99.3,99.3s-99.3-44.5-99.3-99.3S1612.3,1555.7,1667,1555.7
                 M1667,1555c-55.2,0-100,44.8-100,100s44.8,100,100,100s100-44.8,100-100S1722.2,1555,1667,1555L1667,1555z" />
            <path fill="#fff" d="M1655.8,1650.5h-41.9v-34.7l41.9-5.8V1650.5z M1655.8,1695.6l-41.9-5.8v-34.2h41.9V1695.6z M1716.1,1650.5h-55.7v-41.1
                    l55.7-7.7V1650.5z M1716.1,1703.9l-55.7-7.7v-40.6h55.7V1703.9z" />
        </g>
    </g>
    <g class="ring-set ccw set-4">
        <g class="ring">
            <path fill="none" stroke="#333" stroke-width="2px" d="M1300,1065.8c31.6,0,62.3,6.2,91.2,18.4c27.9,11.8,52.9,28.7,74.5,50.2c21.5,21.5,38.4,46.6,50.2,74.5
            c12.2,28.9,18.4,59.6,18.4,91.2s-6.2,62.3-18.4,91.2c-11.8,27.9-28.7,52.9-50.2,74.5c-21.5,21.5-46.6,38.4-74.5,50.2
            c-28.9,12.2-59.6,18.4-91.2,18.4s-62.3-6.2-91.2-18.4c-27.9-11.8-52.9-28.7-74.5-50.2c-21.5-21.5-38.4-46.6-50.2-74.5
            c-12.2-28.9-18.4-59.6-18.4-91.2s6.2-62.3,18.4-91.2c11.8-27.9,28.7-52.9,50.2-74.5c21.5-21.5,46.6-38.4,74.5-50.2
            C1237.7,1072,1268.4,1065.8,1300,1065.8 M1300,1065c-129.8,0-235,105.2-235,235s105.2,235,235,235s235-105.2,235-235
            S1429.8,1065,1300,1065L1300,1065z" />
        </g>
        <g class="icon">
            <path fill="#151718" stroke="none" d="M1527,1345.6c-54.9,0-99.6-44.7-99.6-99.6s44.7-99.6,99.6-99.6s99.6,44.7,99.6,99.6
                S1581.9,1345.6,1527,1345.6z" />
            <path fill="none" stroke="#333" stroke-width="2px" d="M1527,1146.7c54.7,0,99.3,44.5,99.3,99.3s-44.5,99.3-99.3,99.3s-99.3-44.5-99.3-99.3S1472.3,1146.7,1527,1146.7
                 M1527,1146c-55.2,0-100,44.8-100,100s44.8,100,100,100s100-44.8,100-100S1582.2,1146,1527,1146L1527,1146z" />
            <path fill="#fff" d="M1497.6,1232.8v28.8c0,3.8-3,6.9-6.8,6.9s-6.9-3.1-6.9-6.9v-28.8c0-3.8,3.1-6.8,6.9-6.8
                    C1494.5,1226,1497.6,1229.1,1497.6,1232.8z M1561.9,1224.9H1500c0-10.6,6.4-19.9,15.8-24.7l-4.8-8.8c-0.3-0.5-0.1-1.1,0.3-1.3
                    c0.5-0.2,1.1-0.1,1.3,0.4l4.8,8.8c4.1-1.8,8.6-2.8,13.5-2.8c4.8,0,9.4,1,13.5,2.8l4.8-8.8c0.3-0.5,0.9-0.6,1.3-0.4
                    c0.5,0.3,0.6,0.9,0.3,1.3l-4.8,8.8C1555.6,1205,1561.9,1214.2,1561.9,1224.9z M1561.7,1271.9c0,4.1-3.3,7.4-7.3,7.4h-5v15.2
                    c0,3.8-3.1,6.9-6.9,6.9s-6.9-3.1-6.9-6.9v-15.2h-9.2v15.2c0,3.8-3.1,6.9-6.9,6.9c-3.8,0-6.8-3.1-6.8-6.9l-0.1-15.2h-5
                    c-4.1,0-7.4-3.3-7.4-7.4v-44.6h61.5V1271.9z M1519.5,1211.1c0-1.4-1.1-2.6-2.6-2.6c-1.4,0-2.5,1.2-2.5,2.6s1.1,2.6,2.5,2.6
                    C1518.3,1213.7,1519.5,1212.5,1519.5,1211.1z M1547.7,1211.1c0-1.4-1.1-2.6-2.5-2.6c-1.5,0-2.6,1.2-2.6,2.6s1.1,2.6,2.6,2.6
                    C1546.5,1213.7,1547.7,1212.5,1547.7,1211.1z M1578.2,1261.6c0,3.8-3.1,6.9-6.9,6.9c-3.8,0-6.8-3.1-6.8-6.9v-28.8
                    c0-3.8,3.1-6.8,6.8-6.8c3.8,0,6.9,3,6.9,6.8V1261.6z" />
        </g>
        <g class="icon">
            <path fill="#151718" stroke="none" d="M1070,1418.6c-54.9,0-99.6-44.7-99.6-99.6s44.7-99.6,99.6-99.6c54.9,0,99.6,44.7,99.6,99.6
                S1124.9,1418.6,1070,1418.6z" />
            <path fill="none" stroke="#333" stroke-width="2px" d="M1070,1219.7c54.7,0,99.3,44.5,99.3,99.3s-44.5,99.3-99.3,99.3s-99.3-44.5-99.3-99.3S1015.3,1219.7,1070,1219.7
                 M1070,1219c-55.2,0-100,44.8-100,100s44.8,100,100,100c55.2,0,100-44.8,100-100S1125.2,1219,1070,1219L1070,1219z" />
            <path fill="#fff" d="M1042.6,1330.5c5.8,11.5,18.2,18.5,30.9,16.1l-14.1,27.7c-26.3-4.1-46.5-26.8-46.5-54.3c0-11.1,3.3-21.5,9-30.1
                    L1042.6,1330.5z M1095.5,1272.3c9.6,5.6,16.9,13.6,21.6,22.8l-45.5-2.4c-12.9-0.7-25.2,6.5-29.4,18.7l-16.9-26
                    c10.6-13.1,26.4-20.4,42.6-20.4C1077.2,1264.8,1086.8,1267.2,1095.5,1272.3z M1086.5,1319.9c0,10.3-8.3,18.5-18.5,18.5
                    s-18.5-8.3-18.5-18.5s8.3-18.5,18.5-18.5S1086.5,1309.7,1086.5,1319.9z M1095.5,1367.5c-9.6,5.6-20.3,7.9-30.6,7.3l24.9-38.2
                    c7.1-10.9,6.9-25-1.5-34.9l31-1.6C1129,1324.9,1119.3,1353.8,1095.5,1367.5z" />
        </g>
    </g>
</svg>